<svg xmlns="http://www.w3.org/2000/svg" viewBox="0 0 195.8 195.8"><circle cx="98" cy="98" r="90" fill="none" stroke="#18a000" stroke-width="15" stroke-miterlimit="10"/><circle cx="305" cy="98" r="90" fill="none" stroke="#d80010" stroke-width="15" stroke-miterlimit="10"/><path d="M57 105c-4.9-3.8-9.4.6-9.4.6s-3.9 5.1.4 8.4 39 31 39 31 56.4-70.1 62-77-.3-12.4-.3-12.4-6.6-4.2-11.7 2.4c-2.9 3.8-52 67.6-52 67.6S61.9 108.8 57 105z" fill="#18a000"/><path d="M336.7 57.3c-4.3 4.2-30.2 30.1-30.2 30.1s-24.5-24.9-28.8-29-10.4 0-10.4 0-5.2 5.2-.6 9.8c4.6 4.6 29.5 29.7 29.5 29.7s-22.9 22.4-27.3 27.1c-5.5 6-.1 10.3-.1 10.3s5.9 4.7 10.3.4 27.3-27.6 27.3-27.6 24.8 25.1 29.8 30 10.3-.3 10.3-.3 5.2-5.5.6-10.1c-4.6-4.6-30.5-30.2-30.5-30.2s24.9-24.8 30-29.8 0-10.1 0-10.1-5.6-4.6-9.9-.3z" fill="#d80010"/></svg>
